<svg width="43" height="43" viewBox="0 0 43 43" fill="none" xmlns="http://www.w3.org/2000/svg">
<path d="M37.9411 0H10.1176C8.02551 0 6.32347 1.70204 6.32347 3.79412V32.8824H1.26465V39.2059C1.26465 41.298 2.96669 43 5.05877 43H31.6176C34.407 43 36.6764 40.7306 36.6764 37.9412V7.58824H37.9411C40.0333 7.58824 41.7352 5.88619 41.7352 3.79412C41.7352 1.70204 40.0333 0 37.9411 0ZM3.79406 39.2059V35.4118H6.32347V39.2059C6.32347 39.9033 5.75613 40.4706 5.05877 40.4706C4.36141 40.4706 3.79406 39.9033 3.79406 39.2059ZM34.147 37.9412C34.147 39.3359 33.0123 40.4706 31.6176 40.4706H8.63535C8.77574 40.0747 8.85288 39.6493 8.85288 39.2059C8.85288 36.4312 8.85288 4.93977 8.85288 3.79412C8.85288 3.09676 9.42023 2.52941 10.1176 2.52941C10.8149 2.52941 11.3823 3.09676 11.3823 3.79412V7.58824H34.147V37.9412ZM37.9411 5.05882H13.9117V3.79412C13.9117 3.35088 13.8353 2.9251 13.695 2.52941H37.9411C38.6386 2.52941 39.2058 3.09676 39.2058 3.79412C39.2058 4.49148 38.6386 5.05882 37.9411 5.05882Z" fill="white"/>
<path d="M11.3823 10.1177H31.6176V12.6471H11.3823V10.1177Z" fill="white"/>
<path d="M11.3823 15.1765H22.7647V17.7059H11.3823V15.1765Z" fill="white"/>
<path d="M21.5 20.2353C18.7106 20.2353 16.4412 22.5047 16.4412 25.2941C16.4412 26.5737 16.9196 27.743 17.7059 28.6349V38.0352L21.5 35.8219L25.2941 38.0352V28.6349C26.0803 27.743 26.5588 26.5737 26.5588 25.2941C26.5588 22.5047 24.2894 20.2353 21.5 20.2353ZM21.5 22.7647C22.8947 22.7647 24.0294 23.8994 24.0294 25.2941C24.0294 26.6888 22.8947 27.8235 21.5 27.8235C20.1053 27.8235 18.9706 26.6888 18.9706 25.2941C18.9706 23.8994 20.1053 22.7647 21.5 22.7647ZM21.5 32.8937L20.2353 33.6315V30.1929C20.6396 30.2973 21.0634 30.3529 21.5 30.3529C21.9366 30.3529 22.3603 30.2973 22.7647 30.1929V33.6315L21.5 32.8937Z" fill="white"/>
</svg>
