<svg width="95" height="95" viewBox="0 0 95 95" fill="none" xmlns="http://www.w3.org/2000/svg">
<path d="M87.5781 22.2656H84.6094V20.7813H86.0938C87.2748 20.7813 88.4075 20.3121 89.2426 19.477C90.0777 18.6419 90.5469 17.5092 90.5469 16.3281C90.5469 15.1471 90.0777 14.0144 89.2426 13.1793C88.4075 12.3442 87.2748 11.875 86.0938 11.875H84.6094V4.45314C84.6115 4.22074 84.5573 3.99128 84.4513 3.78445C84.3453 3.57763 84.1907 3.3996 84.0008 3.26564C83.8169 3.12642 83.6029 3.03239 83.376 2.99113C83.1491 2.94988 82.9156 2.96255 82.6945 3.02814L63.6055 8.90626H53.4375C53.0438 8.90626 52.6663 9.06265 52.3879 9.34102C52.1095 9.6194 51.9531 9.99696 51.9531 10.3906V11.875H48.9844C48.5907 11.875 48.2131 12.0314 47.9348 12.3098C47.6564 12.5881 47.5 12.9657 47.5 13.3594V19.2969C47.5 19.6906 47.6564 20.0681 47.9348 20.3465C48.2131 20.6249 48.5907 20.7813 48.9844 20.7813H51.9531V22.2656H43.0469V8.90626C43.0469 8.51258 42.8905 8.13502 42.6121 7.85665C42.3337 7.57828 41.9562 7.42189 41.5625 7.42189H11.875C11.4813 7.42189 11.1038 7.57828 10.8254 7.85665C10.547 8.13502 10.3906 8.51258 10.3906 8.90626V22.2656H7.42188C6.24192 22.2692 5.11129 22.7395 4.27693 23.5738C3.44257 24.4082 2.97227 25.5388 2.96875 26.7188V74.2188C2.97227 75.3987 3.44257 76.5294 4.27693 77.3637C5.11129 78.1981 6.24192 78.6684 7.42188 78.6719H41.5625V83.125H32.6562C32.2626 83.125 31.885 83.2814 31.6066 83.5598C31.3283 83.8382 31.1719 84.2157 31.1719 84.6094V90.5469C31.1719 90.9406 31.3283 91.3181 31.6066 91.5965C31.885 91.8749 32.2626 92.0313 32.6562 92.0313H62.3438C62.7374 92.0313 63.115 91.8749 63.3934 91.5965C63.6717 91.3181 63.8281 90.9406 63.8281 90.5469V84.6094C63.8281 84.2157 63.6717 83.8382 63.3934 83.5598C63.115 83.2814 62.7374 83.125 62.3438 83.125H53.4375V78.6719H87.5781C88.7581 78.6684 89.8887 78.1981 90.7231 77.3637C91.5574 76.5294 92.0277 75.3987 92.0312 74.2188V26.7188C92.0277 25.5388 91.5574 24.4082 90.7231 23.5738C89.8887 22.7395 88.7581 22.2692 87.5781 22.2656ZM84.6094 14.8438H86.0938C86.4874 14.8438 86.865 15.0002 87.1434 15.2785C87.4217 15.5569 87.5781 15.9345 87.5781 16.3281C87.5781 16.7218 87.4217 17.0994 87.1434 17.3777C86.865 17.6561 86.4874 17.8125 86.0938 17.8125H84.6094V14.8438ZM65.3125 11.4891L81.6406 6.45704V26.1992L65.3125 21.1672V11.4891ZM54.9219 11.875H62.3438V20.7813H54.9219V11.875ZM59.1523 23.75L58.0836 31.1719H56.4062V23.75H59.1523ZM50.4688 17.8125V14.8438H51.9531V17.8125H50.4688ZM13.3594 10.3906H40.0781V31.1719H13.3594V10.3906ZM60.8594 86.0938V89.0625H34.1406V86.0938H60.8594ZM44.5312 83.125V78.6719H50.4688V83.125H44.5312ZM89.0625 74.2188C89.0625 74.6124 88.9061 74.99 88.6277 75.2684C88.3494 75.5468 87.9718 75.7031 87.5781 75.7031H7.42188C7.02819 75.7031 6.65064 75.5468 6.37226 75.2684C6.09389 74.99 5.9375 74.6124 5.9375 74.2188V72.7344H89.0625V74.2188ZM89.0625 69.7656H5.9375V26.7188C5.9375 26.3251 6.09389 25.9475 6.37226 25.6692C6.65064 25.3908 7.02819 25.2344 7.42188 25.2344H10.3906V32.6563C10.3906 33.0499 10.547 33.4275 10.8254 33.7059C11.1038 33.9843 11.4813 34.1406 11.875 34.1406H41.5625C41.9562 34.1406 42.3337 33.9843 42.6121 33.7059C42.8905 33.4275 43.0469 33.0499 43.0469 32.6563V25.2344H53.4375V32.6563C53.4375 33.0499 53.5939 33.4275 53.8723 33.7059C54.1506 33.9843 54.5282 34.1406 54.9219 34.1406H59.375C59.7326 34.1406 60.0782 34.0114 60.3482 33.7769C60.6182 33.5423 60.7945 33.2182 60.8445 32.8641L62.1508 23.75H63.6055L82.6945 29.6281C82.834 29.6707 82.9793 29.6907 83.125 29.6875C83.5169 29.6818 83.8911 29.5235 84.1683 29.2464C84.4454 28.9693 84.6036 28.595 84.6094 28.2031V25.2344H87.5781C87.9718 25.2344 88.3494 25.3908 88.6277 25.6692C88.9061 25.9475 89.0625 26.3251 89.0625 26.7188V69.7656Z" fill="#FF9800"/>
<path d="M10.3906 66.7969H48.9844C49.3781 66.7969 49.7556 66.6405 50.034 66.3621C50.3124 66.0837 50.4688 65.7062 50.4688 65.3125V41.5625C50.4688 41.1688 50.3124 40.7913 50.034 40.5129C49.7556 40.2345 49.3781 40.0781 48.9844 40.0781H10.3906C9.99694 40.0781 9.61939 40.2345 9.34101 40.5129C9.06264 40.7913 8.90625 41.1688 8.90625 41.5625V65.3125C8.90625 65.7062 9.06264 66.0837 9.34101 66.3621C9.61939 66.6405 9.99694 66.7969 10.3906 66.7969ZM11.875 63.8281V44.218L28.9097 54.7022C29.1436 54.8461 29.4129 54.9223 29.6875 54.9223C29.9621 54.9223 30.2314 54.8461 30.4653 54.7022L47.5 44.218V63.8281H11.875ZM15.6349 43.0469H43.7401L29.6875 51.6948L15.6349 43.0469Z" fill="#FF9800"/>
<path d="M54.9219 57.8906H57.8906V62.3438C57.8906 62.7374 58.047 63.115 58.3254 63.3934C58.6038 63.6717 58.9813 63.8281 59.375 63.8281H84.6094C85.0031 63.8281 85.3806 63.6717 85.659 63.3934C85.9374 63.115 86.0938 62.7374 86.0938 62.3438V44.5313C86.0938 44.1376 85.9374 43.76 85.659 43.4816C85.3806 43.2033 85.0031 43.0469 84.6094 43.0469H83.125V38.5938C83.125 38.2001 82.9686 37.8225 82.6902 37.5441C82.4119 37.2658 82.0343 37.1094 81.6406 37.1094H54.9219C54.5282 37.1094 54.1506 37.2658 53.8723 37.5441C53.5939 37.8225 53.4375 38.2001 53.4375 38.5938V56.4063C53.4375 56.7999 53.5939 57.1775 53.8723 57.4559C54.1506 57.7342 54.5282 57.8906 54.9219 57.8906ZM83.125 60.8594H60.8594V46.0156H83.125V60.8594ZM56.4062 40.0781H80.1562V43.0469H59.375C58.9813 43.0469 58.6038 43.2033 58.3254 43.4816C58.047 43.76 57.8906 44.1376 57.8906 44.5313V54.9219H56.4062V40.0781Z" fill="#FF9800"/>
<path d="M63.8281 48.9844H66.7969V51.9531H63.8281V48.9844Z" fill="#FF9800"/>
<path d="M69.7656 48.9844H80.1562V51.9531H69.7656V48.9844Z" fill="#FF9800"/>
<path d="M63.8281 54.9219H69.7656V57.8906H63.8281V54.9219Z" fill="#FF9800"/>
<path d="M72.7344 54.9219H80.1562V57.8906H72.7344V54.9219Z" fill="#FF9800"/>
<path d="M22.9692 26.4978C23.1844 26.6309 23.4301 26.7067 23.6829 26.7182C23.9357 26.7296 24.1872 26.6762 24.4135 26.5631L33.3198 22.11C33.5668 21.9869 33.7746 21.7973 33.9198 21.5626C34.0651 21.328 34.142 21.0574 34.142 20.7815C34.142 20.5055 34.0651 20.2349 33.9198 20.0003C33.7746 19.7656 33.5668 19.576 33.3198 19.4529L24.4135 14.9998C24.1872 14.8867 23.9356 14.8333 23.6828 14.8448C23.4301 14.8562 23.1844 14.9321 22.9692 15.0652C22.754 15.1983 22.5764 15.3843 22.4532 15.6053C22.3301 15.8264 22.2655 16.0753 22.2656 16.3283V25.2346C22.2655 25.4876 22.3301 25.7366 22.4532 25.9576C22.5764 26.1787 22.754 26.3647 22.9692 26.4978ZM25.2344 18.73L29.3372 20.7815L25.2344 22.8329V18.73Z" fill="#FF9800"/>
</svg>
