<svg width="47" height="47" viewBox="0 0 47 47" fill="none" xmlns="http://www.w3.org/2000/svg">
<g clip-path="url(#clip0_1_227)">
<path d="M21.6641 35.0664C18.374 35.0664 15.6973 37.7431 15.6973 41.0332C15.6973 44.3233 18.374 47 21.6641 47H21.7363C20.2693 45.4389 19.3691 43.3393 19.3691 41.0332C19.3691 38.7271 20.2693 36.6275 21.7363 35.0664H21.6641Z" fill="white"/>
<path d="M6.05859 35.0664C2.76318 35.0664 0.0917969 37.7379 0.0917969 41.0332C0.0917969 44.3285 2.76318 47 6.05859 47H15.3105C13.8435 45.4389 12.9434 43.3393 12.9434 41.0332C12.9434 38.7271 13.8435 36.6275 15.3105 35.0664H6.05859Z" fill="white"/>
<path d="M40.9414 35.0664C37.6513 35.0664 34.9746 37.7431 34.9746 41.0332C34.9746 42.1616 35.2896 43.2176 35.8359 44.1184C36.1278 41.6101 38.2642 39.6562 40.8496 39.6562C41.6101 39.6562 42.2266 40.2728 42.2266 41.0332C42.2266 41.7936 41.6101 42.4102 40.8496 42.4102C39.5842 42.4102 38.5547 43.4397 38.5547 44.7051C38.5547 45.9154 39.4967 46.9092 40.686 46.9935C40.7708 46.9971 40.8558 47 40.9414 47C44.2315 47 46.9082 44.3233 46.9082 41.0332C46.9082 37.7431 44.2315 35.0664 40.9414 35.0664Z" fill="white"/>
<path d="M28.0898 35.0664C24.7998 35.0664 22.123 37.7431 22.123 41.0332C22.123 44.3233 24.7998 47 28.0898 47H34.5879C33.1209 45.4389 32.2207 43.3393 32.2207 41.0332C32.2207 38.7271 33.1209 36.6275 34.5879 35.0664H28.0898Z" fill="white"/>
<path d="M35.8926 23.4082V14.4521L24.8063 18.1476C23.9583 18.4302 23.0416 18.4302 22.1937 18.1476L11.1074 14.4521V23.4082C11.1074 24.001 11.4867 24.5272 12.049 24.7145C15.8482 25.9809 19.674 26.6141 23.5 26.6141C27.326 26.6141 31.1518 25.9809 34.951 24.7145C35.5133 24.5272 35.8926 24.001 35.8926 23.4082Z" fill="white"/>
<path d="M5.59961 11.8784V9.71319L23.0646 15.5349C23.3472 15.629 23.6528 15.629 23.9355 15.5349L43.2128 9.10908C44.4682 8.69067 44.4682 6.91495 43.2128 6.49654L23.9355 0.0707598C23.6528 -0.0234238 23.3472 -0.0234238 23.0646 0.0707598L3.78726 6.49654C3.15919 6.70575 2.84534 7.25487 2.8457 7.80364V11.8783C3.28596 11.7646 3.74733 11.704 4.22266 11.704C4.69798 11.704 5.15935 11.7647 5.59961 11.8784ZM21.6641 6.42577H25.3359C26.0964 6.42577 26.7129 7.04227 26.7129 7.80272C26.7129 8.56316 26.0964 9.17967 25.3359 9.17967H21.6641C20.9036 9.17967 20.2871 8.56316 20.2871 7.80272C20.2871 7.04227 20.9036 6.42577 21.6641 6.42577Z" fill="white"/>
<path d="M2.8457 30.293H5.59961C6.36005 30.293 6.97656 29.6765 6.97656 28.916V24.3262C6.97656 23.5598 6.66335 22.867 6.15819 22.3677C5.55564 22.5947 4.90361 22.7197 4.22266 22.7197C3.54171 22.7197 2.88967 22.5946 2.28712 22.3677C1.78196 22.867 1.46875 23.5598 1.46875 24.3262V28.916C1.46875 29.6765 2.08526 30.293 2.8457 30.293Z" fill="white"/>
<path d="M4.22266 19.9658C5.7436 19.9658 6.97656 18.7329 6.97656 17.2119C6.97656 15.691 5.7436 14.458 4.22266 14.458C2.70172 14.458 1.46875 15.691 1.46875 17.2119C1.46875 18.7329 2.70172 19.9658 4.22266 19.9658Z" fill="white"/>
</g>
<defs>
<clipPath id="clip0_1_227">
<rect width="47" height="47" fill="white"/>
</clipPath>
</defs>
</svg>
