<svg width="95" height="89" viewBox="0 0 95 89" fill="none" xmlns="http://www.w3.org/2000/svg">
<path d="M86.0312 0.75354H8.96878C4.02321 0.75354 0 4.77694 0 9.72232V60.8895C0 65.836 4.02321 69.8603 8.96859 69.8603H34.387C34.1583 74.8075 33.273 79.603 31.7474 84.1604H25.5376C24.4094 84.1604 23.4945 85.0751 23.4945 86.2034C23.4945 87.3318 24.4094 88.2465 25.5376 88.2465H69.4623C70.5904 88.2465 71.5053 87.3318 71.5053 86.2034C71.5053 85.0751 70.5904 84.1604 69.4623 84.1604H63.2524C61.7268 79.6026 60.8416 74.8072 60.6128 69.8603H86.031C90.9766 69.8603 94.9998 65.836 94.9998 60.8895V9.72232C95 4.77694 90.9768 0.75354 86.0312 0.75354ZM4.08593 9.72232C4.08593 7.03004 6.27649 4.83947 8.96859 4.83947H86.031C88.7235 4.83947 90.9139 7.02985 90.9139 9.72232V56.3805H4.08593V9.72232ZM36.0412 84.1606C37.45 79.577 38.2672 74.7854 38.4793 69.8605H56.5207C56.733 74.7849 57.5501 79.5765 58.9588 84.1606H36.0412ZM90.9143 60.8897H90.9141C90.9141 63.5832 88.7235 65.7746 86.0312 65.7746H8.96878C6.27649 65.7746 4.08611 63.5832 4.08611 60.8897V60.4668H90.9143V60.8897Z" fill="#F44336"/>
<path d="M74.7416 48.209H30.7514C29.6233 48.209 28.7084 49.1237 28.7084 50.252C28.7084 51.3804 29.6233 52.2951 30.7514 52.2951H74.7418C75.8699 52.2951 76.7849 51.3804 76.7849 50.252C76.7847 49.1235 75.8699 48.209 74.7416 48.209Z" fill="#F44336"/>
<path d="M20.5874 48.209H20.2584C19.1303 48.209 18.2153 49.1237 18.2153 50.252C18.2153 51.3804 19.1303 52.2951 20.2584 52.2951H20.5872C21.7153 52.2951 22.6302 51.3804 22.6302 50.252C22.6302 49.1235 21.7157 48.209 20.5874 48.209Z" fill="#F44336"/>
<path d="M59.5542 17.6546L71.5977 27.9511L59.5542 38.2477C58.6966 38.981 58.5958 40.2705 59.3289 41.1281C59.7331 41.6007 60.3058 41.8436 60.8827 41.8436C61.3523 41.8436 61.8244 41.6824 62.2092 41.3536L76.0692 29.5042C76.5234 29.116 76.7846 28.5486 76.7846 27.9513C76.7846 27.3541 76.5236 26.7867 76.0694 26.3985L62.2092 14.5489C61.352 13.8156 60.062 13.9166 59.3288 14.7744C58.5955 15.6318 58.6962 16.9213 59.5542 17.6546Z" fill="#F44336"/>
<path d="M18.931 29.5042L32.7908 41.3536C33.1756 41.6828 33.6476 41.8436 34.1173 41.8436C34.6937 41.8436 35.2671 41.601 35.671 41.1282C36.4043 40.2706 36.3036 38.981 35.4458 38.2477L23.4025 27.9512L35.4458 17.6546C36.3034 16.9214 36.4041 15.6318 35.671 14.7742C34.9379 13.9166 33.6482 13.8157 32.7906 14.5488L18.9308 26.3982C18.4766 26.7863 18.2153 27.3537 18.2153 27.951C18.2153 28.5483 18.4768 29.1161 18.931 29.5042Z" fill="#F44336"/>
<path d="M41.6578 45.8982C41.8679 45.9666 42.0811 45.9991 42.2907 45.9991C43.1515 45.9991 43.9521 45.4508 44.233 44.588L54.6524 12.5795C55.0018 11.5067 54.4151 10.3537 53.3423 10.0045C52.2691 9.65512 51.1164 10.2418 50.7672 11.3148L40.3479 43.3235C39.9983 44.396 40.585 45.549 41.6578 45.8982Z" fill="#F44336"/>
</svg>
