<svg width="45" height="45" viewBox="0 0 45 45" fill="none" xmlns="http://www.w3.org/2000/svg">
<g clip-path="url(#clip0_1_68)">
<path d="M20.323 14.5163C20.323 14.9172 19.998 15.2421 19.5972 15.2421C19.1964 15.2421 18.8714 14.9172 18.8714 14.5163C18.8714 14.1155 19.1964 13.7905 19.5972 13.7905C19.998 13.7905 20.323 14.1155 20.323 14.5163Z" fill="white"/>
<path d="M13.065 14.5163C13.065 14.9172 12.74 15.2421 12.3392 15.2421C11.9384 15.2421 11.6134 14.9172 11.6134 14.5163C11.6134 14.1155 11.9384 13.7905 12.3392 13.7905C12.74 13.7905 13.065 14.1155 13.065 14.5163Z" fill="white"/>
<path d="M15.9682 21.7743C17.5694 21.7743 18.8715 20.4723 18.8715 18.8711H17.4198C17.4198 19.6717 16.7688 20.3227 15.9682 20.3227C15.1676 20.3227 14.5166 19.6717 14.5166 18.8711H13.065C13.065 20.4723 14.3671 21.7743 15.9682 21.7743Z" fill="white"/>
<path d="M40.2201 0.000366211H27.581V23.2259H45.0002V4.78078L40.2201 0.000366211ZM40.6454 2.47829L42.5222 4.35516H40.6454V2.47829ZM29.0326 21.7743V1.45196H39.1938V5.80675H43.5486V21.7743H29.0326Z" fill="white"/>
<path d="M35.5648 15.6677L33.9005 14.0031L32.8742 15.0294L35.5648 17.72L42.6101 10.6746L41.5838 9.64832L35.5648 15.6677Z" fill="white"/>
<path d="M40.6453 18.8711H31.9357V12.3389H37.7421V10.8873H30.4841V20.3227H42.0969V14.5163H40.6453V18.8711Z" fill="white"/>
<path d="M30.4842 2.90356H31.9358V4.35518H30.4842V2.90356Z" fill="white"/>
<path d="M33.3873 2.90356H37.7422V4.35518H33.3873V2.90356Z" fill="white"/>
<path d="M30.4842 5.80676H31.9358V7.25838H30.4842V5.80676Z" fill="white"/>
<path d="M33.3873 5.80676H37.7422V7.25838H33.3873V5.80676Z" fill="white"/>
<path d="M33.3874 31.9355H36.2905C36.691 31.9355 37.0163 32.2608 37.0163 32.6613H38.4679C38.4679 31.4609 37.4909 30.4839 36.2905 30.4839H35.5648V29.7581H34.1132V30.4839H33.3874C32.1867 30.4839 31.21 31.4609 31.21 32.6613V33.387C31.21 34.5877 32.1867 35.5644 33.3874 35.5644H36.2905C36.691 35.5644 37.0163 35.8898 37.0163 36.2902V37.016C37.0163 37.4169 36.691 37.7418 36.2905 37.7418H33.3874C32.9865 37.7418 32.6616 37.4169 32.6616 37.016H31.21C31.21 38.2167 32.1867 39.1934 33.3874 39.1934H34.1132V39.9192H35.5648V39.1934H36.2905C37.4909 39.1934 38.4679 38.2167 38.4679 37.016V36.2902C38.4679 35.0899 37.4909 34.1128 36.2905 34.1128H33.3874C32.9865 34.1128 32.6616 33.7879 32.6616 33.387V32.6613C32.6616 32.2608 32.9865 31.9355 33.3874 31.9355Z" fill="white"/>
<path d="M42.4868 30.6874L43.4508 29.0805L40.5968 26.2266L38.99 27.1906C38.456 26.9 37.8935 26.6664 37.3113 26.4945L36.8576 24.6776H32.8207L32.3671 26.4952C31.7845 26.6671 31.2228 26.9007 30.6884 27.1913L29.0815 26.2273L28.2926 27.0162C28.1459 26.9726 28.0006 26.9248 27.8521 26.895L21.0492 25.5348V23.2557C21.8583 22.4342 22.4795 21.421 22.847 20.288C24.6839 20.1101 26.1298 18.576 26.1298 16.6938V10.4419C26.1298 4.92152 21.9426 0.343818 16.5977 0.0195473C14.0932 -0.135323 11.6333 0.640091 9.67422 2.19375C7.89339 3.60778 5.94812 5.08702 3.79978 6.32209L2.5346 7.05107L3.063 7.71131C3.84196 8.68483 4.77437 9.48895 5.80743 10.1137V16.6938C5.80743 18.5586 7.22642 20.0811 9.03702 20.2824C9.3907 21.4239 10.0251 22.4704 10.888 23.3192V25.5341L4.08507 26.8943C1.71808 27.3681 0.0010376 29.4644 0.0010376 31.8771V44.9999H31.9362V43.0302C32.0797 43.0809 32.2207 43.1397 32.3671 43.1826L32.8207 44.9999H36.8576L37.3113 43.1826C37.8942 43.0107 38.456 42.7768 38.99 42.4866L40.5968 43.4505L43.4508 40.5966L42.4868 38.9897C42.7774 38.4557 43.011 37.8929 43.1832 37.311L45.0005 36.8574V32.8205L43.1832 32.3668C43.011 31.7839 42.7781 31.2221 42.4868 30.6874ZM21.6226 27.1285L20.0023 31.4493L17.1799 29.0972L20.4758 26.9L21.6226 27.1285ZM15.1468 34.8387H16.7908L18.0347 43.5483H13.9028L15.1468 34.8387ZM16.9715 33.3871H14.9653L14.0567 31.5705L15.9686 29.9775L17.8795 31.5698L16.9715 33.3871ZM12.3396 24.4266C13.4333 25.0617 14.6694 25.4034 15.9612 25.4034C16.1231 25.4034 16.2858 25.3984 16.4499 25.3881C17.5942 25.314 18.6613 24.9607 19.5976 24.4011V25.7411L15.9686 28.1602L12.3396 25.7411V24.4266ZM23.1777 18.7532C23.2075 18.4792 23.2266 18.2028 23.2266 17.9214V14.65C24.069 14.9505 24.6782 15.749 24.6782 16.6938C24.6782 17.657 24.0459 18.4665 23.1777 18.7532ZM10.5765 3.33136C12.2546 2.00025 14.3667 1.34179 16.5101 1.46902C21.0903 1.74615 24.6782 5.68808 24.6782 10.4419V13.8097C24.2543 13.4886 23.7656 13.2487 23.2266 13.1389V12.339C23.2266 11.1387 22.2495 10.1616 21.0492 10.1616H11.1804C8.73436 10.1616 6.43789 9.18063 4.75913 7.44516C6.89541 6.19096 8.81658 4.72909 10.5765 3.33136ZM8.71062 11.3194V13.1381C8.17123 13.2487 7.68288 13.4879 7.25902 13.809V10.8449C7.73001 11.0362 8.2134 11.1982 8.71062 11.3194ZM7.25902 16.6938C7.25902 15.749 7.86787 14.9505 8.71062 14.65V18.1454C8.71062 18.3474 8.72515 18.5476 8.74181 18.7471C7.88311 18.4555 7.25902 17.6506 7.25902 16.6938ZM10.1622 11.5646C10.4989 11.5972 10.8384 11.6132 11.1804 11.6132H21.0492C21.4497 11.6132 21.775 11.9385 21.775 12.339V17.9214C21.775 21.0989 19.3949 23.743 16.356 23.939C14.725 24.0432 13.1813 23.4918 11.9983 22.3829C10.8139 21.2729 10.1622 19.7678 10.1622 18.1454V11.5646ZM11.4607 26.8993L14.7566 29.0965L11.9338 31.4486L10.3139 27.1278L11.4607 26.8993ZM1.45263 31.8771C1.45263 30.1533 2.67919 28.6567 4.37036 28.3182L8.87222 27.4177L11.2938 33.8737L12.9116 32.5249L13.7664 34.2341L12.4353 43.5483H7.25902V32.6613H5.80743V43.5483H1.45263V31.8771ZM19.5016 43.5483L18.1712 34.2348L19.0263 32.5256L20.6441 33.8744L23.0653 27.4184L27.0863 28.2226L26.2276 29.0813L27.1915 30.6881C26.9013 31.2221 26.6674 31.7846 26.4955 32.3668L24.6782 32.8205V36.8574L26.4955 37.311C26.6674 37.8936 26.9013 38.4557 27.1915 38.9897L26.2276 40.5966L29.0815 43.4505L30.4846 42.6085V43.5483H19.5016ZM43.5489 35.7237L41.9914 36.1135L41.8883 36.5409C41.7111 37.2745 41.4208 37.9737 41.026 38.6187L40.7967 38.994L41.6239 40.3715L40.3722 41.6236L38.9946 40.7961L38.6193 41.0257C37.9733 41.4205 37.2744 41.7101 36.5412 41.888L36.1138 41.9908L35.7239 43.5483H33.9544L33.5646 41.9908L33.1372 41.888C32.4036 41.7108 31.7044 41.4205 31.0594 41.0257L30.6841 40.7961L29.3066 41.6236L28.0545 40.3715L28.882 38.994L28.6527 38.6187C28.2576 37.973 27.968 37.2738 27.7905 36.5409L27.6873 36.1135L26.1298 35.7237V33.9542L27.6873 33.5643L27.7905 33.1369C27.9673 32.403 28.2576 31.7041 28.6527 31.0588L28.882 30.6838L28.0545 29.3059L29.3066 28.0542L30.6841 28.8814L31.0594 28.6521C31.7051 28.2573 32.4043 27.9677 33.1372 27.7898L33.5646 27.6867L33.9544 26.1292H35.7239L36.1138 27.6867L36.5412 27.7898C37.2751 27.967 37.974 28.2573 38.6193 28.6521L38.9946 28.8814L40.3722 28.0542L41.6239 29.3059L40.7967 30.6838L41.026 31.0588C41.4208 31.7048 41.7104 32.4037 41.8883 33.1369L41.9914 33.5643L43.5489 33.9542V35.7237Z" fill="white"/>
</g>
<defs>
<clipPath id="clip0_1_68">
<rect width="45" height="45" fill="white"/>
</clipPath>
</defs>
</svg>
