<svg width="88" height="88" viewBox="0 0 88 88" fill="none" xmlns="http://www.w3.org/2000/svg">
<g clip-path="url(#clip0_1_167)">
<path d="M86.2543 22.9769C86.2541 22.9769 86.2541 22.9769 86.2539 22.9769L86.251 22.9739L80.6031 22.1681C79.8093 22.0551 79.2574 21.3199 79.3705 20.5261C79.4248 20.1446 79.6286 19.8005 79.9367 19.5693L84.5015 16.1457C85.143 15.6646 85.273 14.7546 84.7919 14.1131L79.565 7.14399C79.0839 6.50243 78.174 6.37249 77.5324 6.85361L72.9691 10.2772C72.3303 10.7619 71.4196 10.6371 70.9348 9.99822C70.6994 9.68806 70.5985 9.29623 70.6548 8.91094L71.4621 3.26308C71.5758 2.46926 71.0247 1.7337 70.231 1.61973C70.2305 1.61973 70.2299 1.61954 70.2294 1.61954L61.611 0.388341C60.8173 0.274368 60.0814 0.82536 59.9674 1.61918C59.9674 1.61936 59.9674 1.61936 59.9674 1.61954L59.1602 7.2674C59.0471 8.06122 58.3119 8.61312 57.5181 8.50005C57.1366 8.44579 56.7925 8.24198 56.5613 7.93382L53.1392 3.36907C52.6581 2.72752 51.7481 2.59757 51.1065 3.07869L46.7436 6.35271C44.7698 6.14291 42.7792 6.14291 40.8054 6.35271C27.8788 7.83019 17.7419 18.139 16.4819 31.0886C16.4427 31.4994 16.4281 31.9074 16.4078 32.3154H15.9722C15.2833 32.3167 14.69 32.802 14.5523 33.4769L13.549 38.2478L9.53021 35.4762C8.95345 35.0782 8.17451 35.1491 7.67905 35.6446L3.32338 40.0003C2.82865 40.4955 2.75787 41.2734 3.15496 41.85L5.91355 45.8615L1.14119 46.8648C0.473683 47.0111 -0.00144857 47.6029 3.31835e-06 48.2862V54.0938C-0.000359654 54.7805 0.480761 55.3736 1.1528 55.5152L5.92517 56.5184L3.16658 60.53C2.76948 61.1066 2.84026 61.8844 3.335 62.3797L7.69067 66.7354C8.18612 67.2308 8.96506 67.3018 9.54183 66.9038L13.5534 64.138L14.5567 68.9103C14.6944 69.5853 15.2877 70.0706 15.9766 70.0718H21.7842C22.4709 70.0722 23.064 69.5911 23.2056 68.919L24.2088 64.1467L28.2204 66.9053C28.797 67.3023 29.5748 67.2316 30.0701 66.7368L32.3249 64.4748V68.6127C32.3314 70.6782 33.4379 72.5836 35.2287 73.613V81.6797C35.2287 84.8871 37.8288 87.4873 41.0362 87.4873H46.8438C50.0512 87.4873 52.6514 84.8871 52.6514 81.6797V73.613C54.4421 72.5836 55.5486 70.6782 55.5551 68.6127V62.8661C55.5945 60.4482 56.8595 58.2159 58.9134 56.9395C60.1182 56.1578 61.2609 55.284 62.3311 54.3261L60.3943 52.1628C59.4369 53.0208 58.4141 53.8028 57.3352 54.5018C54.4522 56.3112 52.6875 59.4625 52.6514 62.8661V68.6127C52.6514 70.2165 51.3514 71.5165 49.7476 71.5165H38.1325C36.5287 71.5165 35.2287 70.2165 35.2287 68.6127V62.7456C35.1951 59.4064 33.4581 56.3159 30.6233 54.5511C19.1158 47.3203 15.6487 32.1301 22.8794 20.6226C27.3658 13.4828 35.1955 9.13707 43.6279 9.10694C43.6063 9.15867 43.5872 9.21148 43.5712 9.2652C43.5173 9.64632 43.6171 10.0334 43.8485 10.3411L47.2706 14.9043C47.6314 15.3713 47.6661 16.0127 47.3578 16.5159C47.0609 17.0223 46.4868 17.2985 45.9059 17.2143L40.258 16.407C39.4642 16.2933 38.7286 16.8444 38.6147 17.6381C38.6147 17.6386 38.6145 17.6392 38.6145 17.6397L37.3818 26.2625C37.268 27.0561 37.8192 27.7919 38.6128 27.9058C38.6134 27.9058 38.6139 27.906 38.6145 27.906L44.2623 28.7133C45.0562 28.8263 45.6081 29.5615 45.495 30.3554C45.4407 30.7368 45.2369 31.0809 44.9287 31.3122L40.3655 34.7343C39.7239 35.2154 39.594 36.1254 40.0751 36.7669L45.3019 43.736C45.783 44.3775 46.693 44.5075 47.3345 44.0264L51.8993 40.6043C52.5414 40.124 53.4513 40.2553 53.9316 40.8975C54.1613 41.2048 54.2602 41.5906 54.2063 41.9705L53.4005 47.6183C53.2866 48.412 53.8376 49.1479 54.6314 49.2619C54.6316 49.2619 54.6315 49.2619 54.6317 49.2619L63.256 50.4945C63.3238 50.5032 63.3923 50.5076 63.4607 50.5076C64.1835 50.5085 64.7968 49.9775 64.8995 49.2619L65.7053 43.614C65.8184 42.8202 66.5536 42.2683 67.3474 42.3814C67.7289 42.4356 68.073 42.6394 68.3042 42.9476L71.7277 47.5109C72.2089 48.1525 73.1188 48.2824 73.7604 47.8013L80.7295 42.5745C81.371 42.0933 81.501 41.1834 81.0198 40.5418L77.5977 35.9785C77.2386 35.5108 77.2039 34.8706 77.5106 34.3669C77.8012 33.8539 78.3805 33.5758 78.9625 33.67L84.6104 34.4758C85.404 34.5898 86.1399 34.0386 86.2539 33.245C86.2539 33.2448 86.2539 33.2448 86.2539 33.2446L87.4851 24.6204C87.5991 23.8266 87.0481 23.0908 86.2543 22.9769ZM38.1325 74.4202H49.7476V77.324H38.1325V74.4202ZM38.1325 80.2278H49.7476V81.6797C49.7476 83.2835 48.4476 84.5835 46.8438 84.5835H41.0362C39.4324 84.5835 38.1325 83.2835 38.1325 81.6797V80.2278ZM26.574 55.1899C27.3667 55.8382 28.195 56.4418 29.0552 56.9976C30.4271 57.8645 31.4597 59.1761 31.9808 60.7129L28.8665 63.8214L25.8509 61.7423C24.5304 60.8324 22.7223 61.1652 21.8121 62.4857C21.594 62.8024 21.4408 63.1592 21.3617 63.5354L20.6009 67.1608H17.1497L16.3889 63.5412C16.0586 61.9719 14.5187 60.9674 12.9494 61.2977C12.5732 61.3768 12.2164 61.53 11.8997 61.7481L8.88267 63.8214L6.23732 61.1819L8.31498 58.1678C9.22586 56.8478 8.8941 55.0395 7.57415 54.1286C7.25728 53.9099 6.90011 53.7564 6.52335 53.6771L2.90378 52.9148V49.4651L6.52335 48.7029C8.09211 48.3702 9.09428 46.8289 8.76162 45.2599C8.68267 44.8877 8.53149 44.5347 8.31643 44.2209L6.23732 41.1981L8.88267 38.5585L11.9011 40.6376C13.2222 41.5467 15.0303 41.2128 15.9394 39.8917C16.1572 39.5754 16.31 39.219 16.3889 38.8431L16.643 37.6351C16.8757 39.3081 17.261 40.956 17.7944 42.5585C13.0171 43.128 9.60607 47.4626 10.1756 52.2399C10.7451 57.0172 15.0797 60.4282 19.857 59.8587C22.7328 59.5157 25.2502 57.766 26.574 55.1899ZM24.3192 53.1442C23.235 56.1578 19.9132 57.7219 16.8996 56.6378C13.8861 55.5536 12.322 52.2319 13.406 49.2183C14.2354 46.9129 16.4243 45.3773 18.8744 45.3824C18.8933 45.3824 18.9107 45.3824 18.9296 45.3824C20.2648 48.2613 22.0882 50.8873 24.3192 53.1442ZM83.5766 31.392L79.3661 30.7909C76.9847 30.4508 74.7785 32.1058 74.4384 34.4871C74.2751 35.6306 74.5727 36.7923 75.266 37.7164L77.817 41.1182L73.1709 44.6028L70.6185 41.2024C69.1753 39.2778 66.4452 38.8874 64.5207 40.3306C63.5966 41.0235 62.9855 42.0552 62.8218 43.1988L62.2338 47.4151L56.4858 46.5933L57.0869 42.3828C57.4279 40.0015 55.7738 37.7947 53.3926 37.4538C52.2483 37.29 51.086 37.5876 50.1614 38.2812L46.7596 40.8322L43.275 36.1861L46.6754 33.6337C48.6 32.1905 48.9904 29.4605 47.5472 27.536C46.8543 26.6118 45.8226 26.0008 44.679 25.8371L40.4685 25.236L41.2903 19.488L45.5008 20.089C47.8821 20.4301 50.089 18.776 50.4298 16.3947C50.5937 15.2504 50.296 14.0882 49.6024 13.1635L47.0427 9.75884L51.6888 6.27431L54.2412 9.67608C55.6844 11.6007 58.4145 11.9911 60.3389 10.5479C61.2631 9.85503 61.8741 8.82328 62.0378 7.67974L62.6389 3.46925L68.3869 4.28957L67.7859 8.50005C67.4458 10.8815 69.1005 13.0877 71.482 13.4278C72.6256 13.5911 73.7873 13.2935 74.7114 12.6002L78.1132 10.0492L81.5977 14.6953L78.1959 17.2477C76.2713 18.6909 75.8809 21.421 77.3241 23.3455C78.017 24.2696 79.0487 24.8806 80.1923 25.0443L84.4027 25.6454L83.5766 31.392Z" fill="#009688"/>
<path d="M62.4313 13.824C56.0165 13.824 50.8162 19.0243 50.8162 25.4391C50.8162 31.8539 56.0165 37.0542 62.4313 37.0542C68.8461 37.0542 74.0464 31.8539 74.0464 25.4391C74.0392 19.0272 68.8432 13.8311 62.4313 13.824ZM62.4313 34.1504C57.6201 34.1504 53.72 30.2503 53.72 25.4391C53.72 20.6279 57.6201 16.7278 62.4313 16.7278C67.2425 16.7278 71.1426 20.6279 71.1426 25.4391C71.137 30.2479 67.2401 34.1448 62.4313 34.1504Z" fill="#009688"/>
<path d="M45.3919 64.2567H42.4882V68.6124H45.3919V64.2567Z" fill="#009688"/>
<path d="M37.5895 49.998C28.6268 46.4968 24.1994 36.3927 27.7008 27.43C29.0576 23.9571 31.4926 21.011 34.648 19.0248L33.0959 16.5682C23.5976 22.552 20.7485 35.1027 26.7323 44.601C29.0497 48.2795 32.4855 51.1182 36.5354 52.7C40.1201 54.0735 42.4873 57.5145 42.4882 61.3533H45.392C45.3965 56.3166 42.2927 51.7996 37.5895 49.998Z" fill="#009688"/>
<path d="M81.6891 54.0938H71.5259V56.9975H81.6891V54.0938Z" fill="#009688"/>
<path d="M71.0038 61.6883L69.1451 63.9193L77.857 71.1776L79.7157 68.9466L71.0038 61.6883Z" fill="#009688"/>
<path d="M65.7183 65.7087H62.8145V75.872H65.7183V65.7087Z" fill="#009688"/>
<path d="M13.0968 22.1946L1.48251 25.0979L2.18633 27.9135L13.8006 25.0102L13.0968 22.1946Z" fill="#009688"/>
<path d="M5.58121 7.90559L3.89438 10.2672L14.0568 17.5259L15.7436 15.1643L5.58121 7.90559Z" fill="#009688"/>
<path d="M19.1475 0.0120567L16.3344 0.731323L19.3038 12.3455L22.117 11.6263L19.1475 0.0120567Z" fill="#009688"/>
</g>
<defs>
<clipPath id="clip0_1_167">
<rect width="87.5" height="87.5" fill="white"/>
</clipPath>
</defs>
</svg>
