<svg width="103" height="103" viewBox="0 0 103 103" fill="none" xmlns="http://www.w3.org/2000/svg">
<g clip-path="url(#clip0_1_212)">
<path d="M89.959 13.3945H88.7369C91.0664 9.60189 90.2062 4.51012 86.4675 1.73622C82.4391 -1.25233 76.7145 -0.290348 73.9031 3.91084L67.5571 13.3947H13.0412C8.56018 13.3947 4.91461 17.0403 4.91461 21.5213V73.4777C4.91461 77.9588 8.56018 81.6043 13.0412 81.6043H44.6073L42.2222 91.6219H37.0745C33.7196 91.6219 30.9902 94.3511 30.9902 97.706V98.9764H24.6444C23.5333 98.9764 22.6327 99.8772 22.6327 100.988C22.6327 102.099 23.5333 103 24.6444 103H78.356C79.467 103 80.3677 102.099 80.3677 100.988C80.3677 99.8772 79.467 98.9764 78.356 98.9764H72.0101V97.706C72.0101 94.3511 69.2807 91.6219 65.9258 91.6219H60.7781L58.3931 81.6043H89.9592C94.4402 81.6043 98.0857 77.9588 98.0857 73.4777V62.0454V21.5211C98.0857 17.0401 94.4402 13.3945 89.959 13.3945ZM61.1352 48.7596C57.99 50.9614 52.0975 47.9686 46.4705 50.9713C45.0975 43.8389 45.9631 37.1309 53.1096 35.6503C54.0332 35.4578 55.0275 35.3707 55.8741 35.3876C58.2929 37.1822 60.7395 38.9973 63.1515 40.7871C64.2075 43.8586 63.8111 46.8866 61.1352 48.7596ZM63.1626 27.1968L68.857 31.4218L64.4778 36.761C62.6749 35.4234 61.1252 34.2735 59.3223 32.9358C59.6967 32.3763 62.8204 27.708 63.1626 27.1968ZM77.2472 6.14843C78.7708 3.87101 81.8782 3.34114 84.0702 4.96758C86.2629 6.59422 86.6556 9.72158 84.9181 11.8401C81.8352 15.5985 74.5058 24.5346 71.4113 28.3075L65.4024 23.8492L77.2472 6.14843ZM67.9866 97.706V98.9764H35.0136V97.706C35.0136 96.5698 35.9381 95.6452 37.0745 95.6452H65.9256C67.062 95.6452 67.9866 96.5698 67.9866 97.706ZM56.6421 91.6219H46.358L48.7431 81.6043H54.2571L56.6421 91.6219ZM94.0624 73.4777C94.0624 75.7403 92.2217 77.581 89.9592 77.581C86.7658 77.581 16.6318 77.581 13.0414 77.581C10.7789 77.581 8.93817 75.7403 8.93817 73.4777V64.057H14.6867C15.7978 64.057 16.6984 63.1562 16.6984 62.0454C16.6984 60.9345 15.7978 60.0337 14.6867 60.0337H8.93777V21.5211C8.93777 19.2586 10.7785 17.4179 13.041 17.4179H64.8649C62.9377 20.298 57.3152 28.7004 55.5343 31.3616C51.592 31.3972 47.6562 32.7706 45.0796 35.7785C41.5734 39.8712 40.9575 46.3022 43.2488 54.8924C43.6404 56.3614 45.4733 56.8876 46.5823 55.8283C51.7839 50.858 58.2623 56.2795 64.0638 51.5838C67.6052 48.7172 68.4432 44.1599 67.1079 39.8984C68.913 37.6976 83.7372 19.6239 85.5465 17.4179H89.9587C92.2213 17.4179 94.062 19.2586 94.062 21.5211V60.0335H30.7798C29.6687 60.0335 28.7681 60.9343 28.7681 62.0452C28.7681 63.156 29.6687 64.0568 30.7798 64.0568H94.0624V73.4777Z" fill="#009688"/>
<path d="M22.3447 60.0727C21.3763 60.2706 20.7273 61.1077 20.7273 62.0464C20.7273 63.3047 21.8778 64.2683 23.1313 64.0179C24.2452 63.7918 24.9237 62.7183 24.7105 61.6521C24.4866 60.5517 23.4192 59.8564 22.3447 60.0727Z" fill="#009688"/>
</g>
<defs>
<clipPath id="clip0_1_212">
<rect width="103" height="103" fill="white"/>
</clipPath>
</defs>
</svg>
