<svg width="52" height="52" viewBox="0 0 52 52" fill="none" xmlns="http://www.w3.org/2000/svg">
<g clip-path="url(#clip0_1_117)">
<path d="M9.3991 18.7982C14.5817 18.7982 18.7982 14.5817 18.7982 9.3991C18.7982 4.21647 14.5817 0 9.3991 0C4.21647 0 0 4.21647 0 9.3991C0 14.5817 4.21647 18.7982 9.3991 18.7982ZM9.3991 2.03125C13.4617 2.03125 16.767 5.3365 16.767 9.3991C16.767 13.4617 13.4617 16.767 9.3991 16.767C5.3365 16.767 2.03125 13.4617 2.03125 9.3991C2.03125 5.3365 5.3365 2.03125 9.3991 2.03125Z" fill="white"/>
<path d="M10.2071 11.6315C10.4054 11.8291 10.6648 11.9278 10.9242 11.9278C11.1846 11.9278 11.4452 11.8283 11.6435 11.6292C12.0394 11.2319 12.0384 10.5888 11.6412 10.1928L10.4216 8.97731V4.46875C10.4216 3.90792 9.96683 3.45312 9.40601 3.45312C8.84518 3.45312 8.39038 3.90792 8.39038 4.46875V9.3991C8.39038 9.66905 8.49794 9.92794 8.68897 10.1185L10.2071 11.6315Z" fill="white"/>
<path d="M50.9844 33.7189H44.7335C43.8743 32.4967 42.5832 31.631 41.1107 31.309L36.6456 30.3327C38.4728 29.1003 39.6769 27.0114 39.6769 24.6464V22.1666V21.0192V20.761C39.6769 16.9817 36.6022 13.907 32.8229 13.907C29.0435 13.907 25.9688 16.9817 25.9688 20.761V21.0192V22.1666V24.6464C25.9688 27.0083 27.1698 29.0951 28.9931 30.3281L24.5309 31.3071C24.3403 31.3489 24.1529 31.4002 23.9688 31.4596V23.0548C23.9688 22.494 23.514 22.0392 22.9531 22.0392H16.0469C15.486 22.0392 15.0312 22.494 15.0312 23.0548C15.0312 23.6156 15.486 24.0704 16.0469 24.0704H21.9375V38.2892H15.0312V33.2111C15.0312 31.531 13.6644 30.1642 11.9844 30.1642C10.3043 30.1642 8.9375 31.531 8.9375 33.2111V38.2892H2.03125V24.0704H7.92188C8.4827 24.0704 8.9375 23.6156 8.9375 23.0548C8.9375 22.494 8.4827 22.0392 7.92188 22.0392H1.01562C0.454797 22.0392 0 22.494 0 23.0548V39.3048C0 39.8656 0.454797 40.3204 1.01562 40.3204H8.9375V42.2501H8.83594C7.09983 42.2501 5.6875 43.6625 5.6875 45.3986V45.9064H1.01562C0.454797 45.9064 0 46.3612 0 46.922V50.9845C0 51.5453 0.454797 52.0001 1.01562 52.0001H50.9844C51.5452 52.0001 52 51.5453 52 50.9845V46.922V42.8595V38.797V34.7345C52 34.1737 51.5452 33.7189 50.9844 33.7189ZM44.8072 45.9064H39V43.8751H49.9688V45.9064H44.8072ZM49.9688 41.8439H39V39.8126H49.9688V41.8439ZM49.9688 37.7814H39V35.7501H44.1669C44.1699 35.7501 44.173 35.7507 44.1759 35.7507C44.1791 35.7507 44.1823 35.7501 44.1855 35.7501H49.9688V37.7814ZM28 20.7611C28 18.1018 30.1636 15.9383 32.8228 15.9383C35.355 15.9383 37.4377 17.8999 37.6309 20.3834L35.27 18.9964C34.8423 18.745 34.2957 18.8396 33.9771 19.2197C32.9487 20.4471 31.4404 21.1511 29.8391 21.1511H28.0001V21.0194V20.7611H28ZM28 23.1823H29.8391C31.751 23.1823 33.5664 22.4532 34.938 21.1571L37.6457 22.7479V24.6465C37.6457 27.3058 35.4821 29.4693 32.8229 29.4693C30.1637 29.4693 28.0001 27.3057 28.0001 24.6465V23.1823H28ZM34.4138 31.3122L32.8076 35.6076L31.1985 31.3044C31.7195 31.4316 32.2632 31.5006 32.8228 31.5006C33.3706 31.5006 33.9029 31.4341 34.4138 31.3122ZM22.9531 40.3204C23.514 40.3204 23.9688 39.8656 23.9688 39.3048V33.6556C24.2821 33.4905 24.6161 33.368 24.9661 33.2912L29.4084 32.3166L31.8564 38.863C32.0048 39.2598 32.3839 39.5229 32.8076 39.5229C33.2313 39.5229 33.6105 39.2598 33.7589 38.8629L36.2069 32.3161L40.6768 33.2934C41.0691 33.3792 41.4415 33.5244 41.784 33.7188H37.9844C37.4235 33.7188 36.9688 34.1736 36.9688 34.7344V38.7969V42.8594V45.9063H21.8541V40.3203H22.9531V40.3204ZM19.8229 40.3204V45.9064H18.2812V45.3986C18.2812 43.6625 16.8689 42.2501 15.1328 42.2501H15.0312V40.3204H19.8229ZM10.9688 33.2111C10.9688 32.6511 11.4244 32.1954 11.9844 32.1954C12.5444 32.1954 13 32.6511 13 33.2111V42.2501H10.9688V33.2111ZM7.71875 45.3986C7.71875 44.7826 8.21996 44.2814 8.83594 44.2814H9.95312H14.0156H15.1328C15.7488 44.2814 16.25 44.7826 16.25 45.3986V45.9064H7.71875V45.3986ZM49.9688 49.9689H2.03125V47.9376H49.9688V49.9689Z" fill="white"/>
<path d="M11.2663 22.3366C11.0774 22.5255 10.9688 22.7876 10.9688 23.0547C10.9688 23.3218 11.0773 23.5838 11.2663 23.7726C11.4552 23.9615 11.7173 24.0703 11.9844 24.0703C12.2515 24.0703 12.5135 23.9616 12.7023 23.7726C12.8913 23.5838 13 23.3218 13 23.0547C13 22.7876 12.8913 22.5255 12.7023 22.3366C12.5135 22.1477 12.2515 22.0391 11.9844 22.0391C11.7173 22.0391 11.4552 22.1476 11.2663 22.3366Z" fill="white"/>
</g>
<defs>
<clipPath id="clip0_1_117">
<rect width="52" height="52" fill="white"/>
</clipPath>
</defs>
</svg>
